<?xml version="1.0" encoding="UTF-8" standalone="no"?>
<!-- Created with Inkscape (http://www.inkscape.org/) -->

<svg
   width="25.4mm"
   height="25.4mm"
   viewBox="0 0 25.4 25.4"
   version="1.1"
   id="svg1"
   xml:space="preserve"
   inkscape:version="1.4.3 (0d15f75, 2025-12-25)"
   sodipodi:docname="WH_CurledTail.svg"
   inkscape:export-filename="WH_CurledTail.png"
   inkscape:export-xdpi="128"
   inkscape:export-ydpi="128"
   xmlns:inkscape="http://www.inkscape.org/namespaces/inkscape"
   xmlns:sodipodi="http://sodipodi.sourceforge.net/DTD/sodipodi-0.dtd"
   xmlns="http://www.w3.org/2000/svg"
   xmlns:svg="http://www.w3.org/2000/svg"><sodipodi:namedview
     id="namedview1"
     pagecolor="#505050"
     bordercolor="#ffffff"
     borderopacity="1"
     inkscape:showpageshadow="0"
     inkscape:pageopacity="0"
     inkscape:pagecheckerboard="1"
     inkscape:deskcolor="#505050"
     inkscape:document-units="mm"
     inkscape:zoom="5.9651515"
     inkscape:cx="24.224029"
     inkscape:cy="48.699518"
     inkscape:window-width="1920"
     inkscape:window-height="1051"
     inkscape:window-x="-9"
     inkscape:window-y="-9"
     inkscape:window-maximized="1"
     inkscape:current-layer="layer2" /><defs
     id="defs1" /><g
     inkscape:groupmode="layer"
     id="layer2"
     inkscape:label="ART"
     transform="translate(-92.074997,-135.73125)"><path
       style="baseline-shift:baseline;display:inline;overflow:visible;fill:#ffffff;stroke:#000000;stroke-width:2;stroke-linecap:round;stroke-linejoin:round;stroke-dasharray:none;stroke-dashoffset:2.26772;stroke-opacity:1;paint-order:markers stroke fill;enable-background:accumulate;stop-color:#000000"
       d="m 96.528449,146.29736 c -0.112085,2.111 0.422993,4.06307 1.831817,5.53862 1.408828,1.47555 3.575914,2.7124 5.110844,3.2555 1.53491,0.54309 3.24497,1.09422 4.74025,1.23469 1.4407,0.13534 2.89462,0.17791 3.99882,-0.0808 0.49117,-0.11506 0.87658,-0.35729 0.78105,-1.04768 -0.0956,-0.69039 -0.64034,-1.13094 -1.05077,-1.11252 -0.82634,0.0371 -1.95897,0.30088 -3.41724,0.22062 -1.4206,-0.0782 -3.02518,-0.2645 -4.15847,-0.66527 -1.75682,-0.62127 -3.57069,-1.50218 -4.836141,-2.82758 -1.26789,-1.32794 -1.870593,-2.82315 -1.563503,-4.57451 0.304385,-1.73599 1.365329,-3.39285 2.849914,-4.25732 1.48458,-0.86449 3.43749,-0.98308 5.06758,0.0847 1.43336,0.9389 1.57341,2.03325 1.46232,3.0548 -0.11111,1.02154 -0.78684,1.90452 -1.39932,2.17907 -0.53542,0.23999 -1.28592,0.23222 -1.93411,0.002 -0.64818,-0.23032 -1.15733,-0.66403 -1.32077,-1.15285 -0.0658,-0.19666 0.0154,-0.78719 0.29486,-1.11261 0.13975,-0.16273 0.30241,-0.26865 0.51399,-0.31092 0.21157,-0.0422 0.4962,-0.0249 0.89816,0.15573 0.25599,0.11501 0.56271,0.0131 0.68479,-0.2277 0.12194,-0.24052 0.0134,-0.52837 -0.24234,-0.64321 -0.55708,-0.25013 -1.08845,-0.32205 -1.55369,-0.22909 -0.46523,0.093 -0.83959,0.34644 -1.09949,0.64903 -0.51977,0.6052 -0.68867,1.36943 -0.47514,2.0081 0.28626,0.85626 1.06307,1.4561 1.9368,1.76658 0.87374,0.3105 1.88117,0.35099 2.73819,-0.0332 1.05472,-0.47277 1.83436,-1.61876 1.97944,-2.95267 0.14506,-1.33391 0.0568,-2.77581 -1.60278,-3.93522 -1.00514,-0.7022 -1.98248,-1.19925 -3.41508,-1.1937 -1.48248,0.006 -2.75235,0.45328 -3.746893,1.14075 -1.187727,0.82101 -3.073088,2.72286 -3.073088,5.06674 z"
       id="path1"
       sodipodi:nodetypes="ssssszsssssssssssssssssssssssssss"
       inkscape:label="_east" /></g></svg>
