<?xml version="1.0" encoding="UTF-8" standalone="no"?>
<!-- Created with Inkscape (http://www.inkscape.org/) -->

<svg
   width="25.4mm"
   height="25.4mm"
   viewBox="0 0 25.4 25.4"
   version="1.1"
   id="svg1"
   xml:space="preserve"
   inkscape:version="1.4.3 (0d15f75, 2025-12-25)"
   sodipodi:docname="WH_SukiradaeStomach.svg"
   inkscape:export-filename="WH_SukiradaeStomach.png"
   inkscape:export-xdpi="128"
   inkscape:export-ydpi="128"
   xmlns:inkscape="http://www.inkscape.org/namespaces/inkscape"
   xmlns:sodipodi="http://sodipodi.sourceforge.net/DTD/sodipodi-0.dtd"
   xmlns="http://www.w3.org/2000/svg"
   xmlns:svg="http://www.w3.org/2000/svg"><sodipodi:namedview
     id="namedview1"
     pagecolor="#505050"
     bordercolor="#ffffff"
     borderopacity="1"
     inkscape:showpageshadow="0"
     inkscape:pageopacity="0"
     inkscape:pagecheckerboard="1"
     inkscape:deskcolor="#505050"
     inkscape:document-units="mm"
     inkscape:zoom="8.4359982"
     inkscape:cx="48.897592"
     inkscape:cy="46.645339"
     inkscape:window-width="1920"
     inkscape:window-height="1051"
     inkscape:window-x="-9"
     inkscape:window-y="-9"
     inkscape:window-maximized="1"
     inkscape:current-layer="layer2" /><defs
     id="defs1" /><g
     inkscape:groupmode="layer"
     id="layer2"
     inkscape:label="ART"
     transform="translate(-92.074997,-135.73125)"><path
       id="path4-5"
       style="fill:#000000;fill-opacity:1;stroke:#000000;stroke-width:1.3894;stroke-linecap:round;stroke-linejoin:round;stroke-dasharray:none;stroke-dashoffset:2.26772;stroke-opacity:1;paint-order:markers stroke fill"
       d="m 102.93778,141.08728 c -0.62672,0.59956 -1.56075,1.47654 -1.69335,2.36765 -0.006,-0.006 -0.0135,-0.0121 -0.0204,-0.0184 -0.85948,0.44881 -1.438883,1.17011 -1.14644,1.32121 -0.0225,0.0554 -0.213303,0.24673 -0.204283,0.30656 l 0.002,0.005 c -2.905633,2.39806 -4.197051,4.54657 -1.946179,6.17338 -0.08297,-0.26563 -0.101323,-0.50816 0.118234,-0.66646 0.956525,-0.37556 1.778515,-1.00743 2.603598,-1.45099 0.41352,-0.2223 0.82569,-0.40843 1.23603,-0.58847 0.34559,0.17883 0.87858,0.35293 1.07302,0.29442 l 0.003,0.008 c 0.82574,0.6055 1.11179,-0.21721 1.95361,0.49852 -0.19049,0.50027 -0.70522,0.53204 -0.72377,2.33777 l 0.28079,-0.12059 c -0.27622,0.75313 -0.19025,1.57079 -0.0532,2.39736 l 0.23986,-0.25719 c 0.43456,1.20128 1.18124,1.9834 2.03944,2.61512 l 0.1223,-0.2783 0.62806,0.11162 c 1.24391,-0.49165 2.03376,-1.46918 2.77743,-2.4963 l 0.0962,0.32496 c 0.74988,-1.39234 1.44779,-2.8041 1.32237,-4.52165 l 0.21788,0.23353 c 0.16098,-1.18971 0.1848,-2.38124 -0.29619,-3.57785 l 0.25304,0.037 c -0.54442,-1.4595 -1.85729,-3.10646 -3.40113,-3.87639 -0.0111,-0.0308 -0.0221,-0.0618 -0.0343,-0.0927 l 0.3119,-0.0459 c -0.86122,-0.84944 -1.67434,-1.76325 -3.34627,-1.53049 l 0.0332,-0.23347 c -0.83786,0.22828 -1.67429,0.46068 -2.42639,0.97873 z" /><path
       style="opacity:1;fill:#e6e6e6;fill-opacity:1;stroke:none;stroke-width:1.60882;stroke-linecap:round;stroke-linejoin:round;stroke-dashoffset:2.26772;paint-order:markers stroke fill"
       d="m 104.97456,149.09881 c -0.0978,0.76336 -0.76079,0.52203 -0.78188,2.57559 l 0.28068,-0.12026 c -0.27621,0.75312 -0.19034,1.5706 -0.0533,2.39717 l 0.24017,-0.25714 c 0.43456,1.20128 1.18091,1.98337 2.03913,2.61509 l 0.12234,-0.27808 0.6284,0.11168 c 1.2439,-0.49164 2.03374,-1.46933 2.77739,-2.49645 l 0.0962,0.32502 c 0.74988,-1.39234 1.44762,-2.80403 1.3222,-4.52158 l 0.21786,0.2332 c 0.16099,-1.18972 0.18493,-2.3809 -0.29606,-3.5775 l 0.25276,0.0369 c -0.55428,-1.48597 -1.9048,-3.16623 -3.48502,-3.91738 z"
       id="path4"
       sodipodi:nodetypes="cccccccccccccccc" /><path
       style="opacity:1;fill:#f9f9f9;stroke:none;stroke-width:1.60882;stroke-linecap:round;stroke-linejoin:round;stroke-dashoffset:2.26772;paint-order:markers stroke fill"
       d="m 101.24297,143.46834 c 0.12515,-0.8957 1.06547,-1.77829 1.69533,-2.38084 l 0.0196,0.25466 c 0.75209,-0.51808 1.58875,-0.75041 2.42662,-0.97869 l -0.0333,0.23314 c 1.67192,-0.23276 2.48483,0.68114 3.34604,1.53058 l -0.31201,0.0459 c 0.45569,1.20142 0.4583,2.32727 0.32037,3.0997 l -0.19192,-0.25718 c -0.20938,0.87925 -0.7015,1.78416 -0.70245,2.66692 -9.3e-4,0.64189 0.32716,1.90566 0.13984,2.60119 l -0.27856,-0.22003 c 0.005,1.74258 -0.0424,2.08714 -0.38049,3.09345 -0.68907,-1.70801 -1.16189,-2.40886 -1.91853,-3.33914 -1.22023,-1.50027 -1.45148,-0.27601 -2.41083,-0.97949 z"
       id="path3"
       sodipodi:nodetypes="cccccccccscccscc" /><path
       style="opacity:1;fill:#e6e6e6;stroke:none;stroke-width:1.60882;stroke-linecap:round;stroke-linejoin:round;stroke-dashoffset:2.26772;paint-order:markers stroke fill"
       d="m 99.873507,145.06438 c -0.008,-0.0597 0.181913,-0.25107 0.204453,-0.30651 -0.292443,-0.1511 0.28686,-0.87239 1.14634,-1.32119 0.82213,0.74404 1.17117,-0.8041 2.55115,-1.15509 0.70175,-0.17853 1.47872,0.13328 2.25895,0.4663 -0.44593,0.36741 0.42907,-5.5e-4 -0.33013,1.64411 0.1603,-0.0816 0.65236,0.74076 0.49842,1.37586 -0.58528,1.74435 -1.54078,2.45502 -3.23401,3.05951 -0.20814,0.0743 -0.85922,-0.15387 -1.19312,-0.35385 z"
       id="path2"
       sodipodi:nodetypes="cccscccscc" /><path
       style="opacity:1;fill:#4d4d4d;stroke:none;stroke-width:1.60882;stroke-linecap:round;stroke-linejoin:round;stroke-dashoffset:2.26772;paint-order:markers stroke fill"
       d="m 97.929438,151.24186 c -2.254057,-1.62912 -0.955837,-3.78174 1.958509,-6.18392 0.985173,-0.11325 1.280393,0.53315 1.289673,1.51269 1.13888,0.88873 1.44427,0.30151 2.91539,-0.28402 -0.0888,0.51585 -0.19371,1.03116 -0.65089,1.53451 -0.92174,0.47861 -1.85216,0.7987 -2.79064,1.30322 -0.825073,0.44356 -1.647053,1.07548 -2.603586,1.451 -0.219558,0.15829 -0.201421,0.40088 -0.118456,0.66652 z"
       id="path1"
       sodipodi:nodetypes="cccccscc" /><circle
       style="fill:#4d4d4d;stroke:none;stroke-width:0.523449;stroke-linecap:round;stroke-linejoin:round;stroke-dasharray:none;stroke-dashoffset:2.26772;paint-order:markers stroke fill"
       id="path5"
       cx="104.09296"
       cy="143.70367"
       r="0.3611795" /></g></svg>
