<?xml version="1.0" encoding="UTF-8" standalone="no"?>
<!-- Created with Inkscape (http://www.inkscape.org/) -->

<svg
   width="25.4mm"
   height="25.4mm"
   viewBox="0 0 25.4 25.4"
   version="1.1"
   id="svg1"
   xml:space="preserve"
   inkscape:version="1.4.3 (0d15f75, 2025-12-25)"
   sodipodi:docname="__WH_SukiradaeReproduction.svg"
   inkscape:export-filename="WH_SukiradaeReproduction.png"
   inkscape:export-xdpi="128"
   inkscape:export-ydpi="128"
   xmlns:inkscape="http://www.inkscape.org/namespaces/inkscape"
   xmlns:sodipodi="http://sodipodi.sourceforge.net/DTD/sodipodi-0.dtd"
   xmlns="http://www.w3.org/2000/svg"
   xmlns:svg="http://www.w3.org/2000/svg"><sodipodi:namedview
     id="namedview1"
     pagecolor="#505050"
     bordercolor="#ffffff"
     borderopacity="1"
     inkscape:showpageshadow="0"
     inkscape:pageopacity="0"
     inkscape:pagecheckerboard="1"
     inkscape:deskcolor="#505050"
     inkscape:document-units="mm"
     inkscape:zoom="8.4359982"
     inkscape:cx="44.985785"
     inkscape:cy="49.60883"
     inkscape:window-width="1920"
     inkscape:window-height="1051"
     inkscape:window-x="-9"
     inkscape:window-y="-9"
     inkscape:window-maximized="1"
     inkscape:current-layer="layer2" /><defs
     id="defs1" /><g
     inkscape:groupmode="layer"
     id="layer2"
     inkscape:label="ART"
     transform="translate(-92.074997,-135.73125)"
     style="display:inline"><path
       id="path1-8-4"
       style="display:inline;fill:#000000;fill-opacity:1;stroke:#000000;stroke-width:1.5;stroke-linecap:round;stroke-linejoin:round;stroke-dasharray:none;stroke-dashoffset:2.26772;stroke-opacity:1;paint-order:markers stroke fill"
       d="m 100.50498,138.8706 a 5.2909226,5.2909226 0 0 0 -5.29115,5.29115 5.2909226,5.2909226 0 0 0 1.04851,3.14038 5.3285359,5.3285359 0 0 1 -0.02997,-0.0202 5.2909228,5.2909228 0 0 0 0.12402,0.14882 5.2909226,5.2909226 0 0 0 0.20412,0.24495 5.2909228,5.2909228 0 0 0 0.27699,0.28577 5.2909226,5.2909226 0 0 0 0.22893,0.21239 5.2909228,5.2909228 0 0 0 0.29817,0.23306 5.4704019,5.4704019 0 0 1 -0.05839,-0.031 5.2909228,5.2909228 0 0 0 0.14572,0.0971 5.2909226,5.2909226 0 0 0 0.17984,0.12505 5.2909228,5.2909228 0 0 0 0.14314,0.0915 5.2909228,5.2909228 0 0 0 0.27957,0.1509 5.2909226,5.2909226 0 0 0 0.20206,0.10645 5.2909228,5.2909228 0 0 0 0.09353,0.0439 5.2909228,5.2909228 0 0 0 0.37465,0.14314 5.2909226,5.2909226 0 0 0 0.18707,0.0708 5.2909228,5.2909228 0 0 0 0.0584,0.0186 5.2909228,5.2909228 0 0 0 0.634583,0.15193 5.2909226,5.2909226 0 0 0 5.188317,4.25194 5.2909226,5.2909226 0 0 0 1.86707,-0.34055 l 1.78903,1.82314 -2.84478,2.98638 8.72298,-0.0475 -0.14211,-8.86509 -2.84427,3.17655 -1.77405,-1.74305 a 5.2909226,5.2909226 0 0 0 0.51624,-2.28048 5.2909226,5.2909226 0 0 0 -4.39043,-5.21363 5.2909226,5.2909226 0 0 0 0,-5.2e-4 5.2909226,5.2909226 0 0 0 0,-5.2e-4 5.2909226,5.2909226 0 0 0 -0.0708,-0.25993 5.2909228,5.2909228 0 0 0 -0.0801,-0.29404 5.2909226,5.2909226 0 0 0 -0.0357,-0.13229 5.2909228,5.2909228 0 0 0 -0.10077,-0.23874 5.2909228,5.2909228 0 0 0 0,-5.2e-4 5.2909228,5.2909228 0 0 0 -0.0377,-0.1018 5.4704019,5.4704019 0 0 1 0.008,0.0331 5.2909226,5.2909226 0 0 0 -0.14625,-0.34727 5.2909228,5.2909228 0 0 0 -0.36225,-0.61185 5.2909226,5.2909226 0 0 0 -0.4408,-0.5581 5.2909228,5.2909228 0 0 0 -0.5116,-0.49403 5.2909226,5.2909226 0 0 0 -3.41012,-1.24592 z" /><path
       id="path1-8"
       style="display:inline;fill:#96cadc;fill-opacity:1;stroke:none;stroke-width:1;stroke-linecap:round;stroke-linejoin:round;stroke-dasharray:none;stroke-dashoffset:2.26772;paint-order:markers stroke fill"
       d="m 104.79286,143.04515 a 5.2909226,5.2909226 0 0 0 -5.291147,5.29115 5.2909226,5.2909226 0 0 0 5.291147,5.29063 5.2909226,5.2909226 0 0 0 1.86707,-0.34055 h 5.1e-4 l 1.78904,1.82315 -2.84479,2.98638 8.72298,-0.0476 -0.14211,-8.86509 -2.84427,3.17655 -1.77405,-1.74304 a 5.2909226,5.2909226 0 0 0 0.51625,-2.28048 5.2909226,5.2909226 0 0 0 -5.29063,-5.29115 z" /><circle
       style="fill:#ececec;stroke:none;stroke-width:1;stroke-linecap:round;stroke-linejoin:round;stroke-dasharray:none;stroke-dashoffset:2.26772;paint-order:markers stroke fill"
       id="path1"
       cx="100.50478"
       cy="144.16092"
       r="5.2909226" /><path
       id="path1-5"
       style="display:inline;fill:#cccccc;stroke:none;stroke-width:0.799508;stroke-linecap:round;stroke-linejoin:round;stroke-dashoffset:2.26772;paint-order:markers stroke fill"
       d="m 103.91531,140.11586 a 5.3285359,5.3285359 0 0 1 0.87755,2.92929 5.3285359,5.3285359 0 0 1 -5.328911,5.32849 5.3285359,5.3285359 0 0 1 -3.23171,-1.09239 5.2909228,5.2909228 0 0 0 4.272461,2.17073 5.2909228,5.2909228 0 0 0 5.29089,-5.29089 5.2909228,5.2909228 0 0 0 -1.88028,-4.04523 z" /><path
       id="path1-5-1"
       style="display:inline;fill:#ececec;stroke:none;stroke-width:0.799508;stroke-linecap:round;stroke-linejoin:round;stroke-dashoffset:2.26772;paint-order:markers stroke fill"
       d="m 105.36756,142.09406 a 5.4704019,5.4704019 0 0 1 0.2512,1.60718 5.4704019,5.4704019 0 0 1 -5.4702,5.47021 5.4704019,5.4704019 0 0 1 -2.842531,-0.79615 5.2909228,5.2909228 0 0 0 3.198671,1.07668 5.2909228,5.2909228 0 0 0 5.29089,-5.29089 5.2909228,5.2909228 0 0 0 -0.42803,-2.06703 z" /><path
       id="path1-8-1"
       style="display:inline;fill:#547984;fill-opacity:1;stroke:none;stroke-width:1;stroke-linecap:round;stroke-linejoin:round;stroke-dasharray:none;stroke-dashoffset:2.26772;paint-order:markers stroke fill"
       d="m 104.79308,143.04503 a 5.2909226,5.2909226 0 0 0 -5.291147,5.29115 5.2909226,5.2909226 0 0 0 0.10284,1.03869 5.2909226,5.2909226 0 0 0 0.900197,0.077 5.2909226,5.2909226 0 0 0 5.29064,-5.29115 5.2909226,5.2909226 0 0 0 -0.10284,-1.0387 5.2909226,5.2909226 0 0 0 -0.89969,-0.077 z" /><path
       id="path1-5-2"
       style="display:inline;fill:#2b3d42;fill-opacity:1;stroke:none;stroke-width:0.799508;stroke-linecap:round;stroke-linejoin:round;stroke-dashoffset:2.26772;paint-order:markers stroke fill"
       d="m 104.79309,143.04451 a 5.3285359,5.3285359 0 0 1 0,5.2e-4 5.3285359,5.3285359 0 0 1 -5.291147,5.32836 5.2909226,5.2909226 0 0 0 0.10283,1.00097 5.2909226,5.2909226 0 0 0 0.900207,0.077 5.2909226,5.2909226 0 0 0 0.69039,-0.045 5.2909228,5.2909228 0 0 0 0.11318,-0.0222 5.2909226,5.2909226 0 0 0 1.22111,-0.33538 5.2909226,5.2909226 0 0 0 1.19579,-0.6904 5.2909228,5.2909228 0 0 0 5.2e-4,-5.2e-4 5.2909226,5.2909226 0 0 0 0.51986,-0.45578 5.2909228,5.2909228 0 0 0 5.2e-4,-5.2e-4 5.2909226,5.2909226 0 0 0 0.45579,-0.51986 5.2909228,5.2909228 0 0 0 5.1e-4,-5.2e-4 5.2909228,5.2909228 0 0 0 0.58912,-0.99115 5.2909226,5.2909226 0 0 0 0.10128,-0.20464 5.2909228,5.2909228 0 0 0 0,-5.2e-4 5.2909226,5.2909226 0 0 0 0.22221,-0.65474 5.2909228,5.2909228 0 0 0 0,-5.2e-4 5.2909226,5.2909226 0 0 0 0.18035,-1.36891 5.2909228,5.2909228 0 0 0 0,-5.1e-4 5.2909226,5.2909226 0 0 0 -0.0258,-0.52142 5.2909228,5.2909228 0 0 0 0,-5.1e-4 5.2909226,5.2909226 0 0 0 -0.077,-0.51677 5.2909226,5.2909226 0 0 0 -0.89968,-0.077 z" /><circle
       style="fill:#ffffff;stroke:none;stroke-width:0.799508;stroke-linecap:round;stroke-linejoin:round;stroke-dashoffset:2.26772;paint-order:markers stroke fill"
       id="path2"
       cx="97.445587"
       cy="143.1579"
       r="1.1033204" /><circle
       style="fill:#ffffff;stroke:none;stroke-width:0.799508;stroke-linecap:round;stroke-linejoin:round;stroke-dashoffset:2.26772;paint-order:markers stroke fill"
       id="path3"
       cx="99.050407"
       cy="141.25217"
       r="0.65196204" /><path
       id="path1-8-8"
       style="display:inline;fill:#547984;fill-opacity:1;stroke:none;stroke-width:1;stroke-linecap:round;stroke-linejoin:round;stroke-dasharray:none;stroke-dashoffset:2.26772;paint-order:markers stroke fill"
       d="m 105.58271,143.10395 a 5.4704019,5.4704019 0 0 1 0.0362,0.59686 5.4704019,5.4704019 0 0 1 -5.46995,5.46995 5.4704019,5.4704019 0 0 1 -0.585487,-0.0315 5.2909226,5.2909226 0 0 0 0.0413,0.23513 5.2909228,5.2909228 0 0 0 0.900197,0.077 5.2909228,5.2909228 0 0 0 5.29063,-5.29115 5.2909228,5.2909228 0 0 0 -0.10645,-1.03921 5.2909226,5.2909226 0 0 0 -0.10645,-0.017 z" /></g></svg>
