<?xml version="1.0" encoding="UTF-8" standalone="no"?>
<!-- Created with Inkscape (http://www.inkscape.org/) -->

<svg
   width="25.4mm"
   height="25.4mm"
   viewBox="0 0 25.4 25.4"
   version="1.1"
   id="svg1"
   xml:space="preserve"
   inkscape:version="1.4.3 (0d15f75, 2025-12-25)"
   sodipodi:docname="WH_Farsighted.svg"
   inkscape:export-filename="WH_SukiradaeEyes.png"
   inkscape:export-xdpi="128"
   inkscape:export-ydpi="128"
   xmlns:inkscape="http://www.inkscape.org/namespaces/inkscape"
   xmlns:sodipodi="http://sodipodi.sourceforge.net/DTD/sodipodi-0.dtd"
   xmlns:xlink="http://www.w3.org/1999/xlink"
   xmlns="http://www.w3.org/2000/svg"
   xmlns:svg="http://www.w3.org/2000/svg"><sodipodi:namedview
     id="namedview1"
     pagecolor="#505050"
     bordercolor="#ffffff"
     borderopacity="1"
     inkscape:showpageshadow="0"
     inkscape:pageopacity="0"
     inkscape:pagecheckerboard="1"
     inkscape:deskcolor="#505050"
     inkscape:document-units="mm"
     inkscape:zoom="5.9651515"
     inkscape:cx="39.479299"
     inkscape:cy="42.664465"
     inkscape:window-width="1920"
     inkscape:window-height="1051"
     inkscape:window-x="-9"
     inkscape:window-y="-9"
     inkscape:window-maximized="1"
     inkscape:current-layer="layer2" /><defs
     id="defs1"><pattern
       inkscape:collect="always"
       xlink:href="#pattern13-3"
       preserveAspectRatio="xMidYMid"
       id="pattern11"
       patternTransform="matrix(0.05,0,0,0.05,430,45)"
       x="0"
       y="0" /><pattern
       patternUnits="userSpaceOnUse"
       width="20"
       height="20"
       patternTransform="translate(430,45)"
       preserveAspectRatio="xMidYMid"
       style="fill:#b3b3b3"
       id="pattern13-3"
       inkscape:label="Circle fill 3"
       inkscape:collect="always"
       inkscape:isstock="true"><path
         style="stroke-width:4.8561;stroke-linecap:square;paint-order:stroke markers fill;stop-color:#000000"
         d="M 0,0 V 10 H 10 C 5,10 0,5 0,0 Z M 10,10 V 0 H 20 C 15,0 10,5 10,10 Z M 0,20 V 10 H 10 C 5,10 0,15 0,20 Z M 10,10 V 20 H 20 C 15,20 10,15 10,10 Z"
         id="path11-4"
         sodipodi:nodetypes="cccc" /></pattern><clipPath
       clipPathUnits="userSpaceOnUse"
       id="clipPath8"><path
         id="path8"
         style="stroke-width:0.1;stroke-linecap:square;paint-order:markers fill stroke;stop-color:#000000"
         d="m -880.82767,-187.29769 h 1640.84 v 73.28155 h -1640.84 z" /></clipPath><clipPath
       clipPathUnits="userSpaceOnUse"
       id="clipPath52"><path
         id="path52"
         style="stroke-width:0.1;stroke-linecap:square;paint-order:markers fill stroke;stop-color:#000000"
         d="m -880.82767,-187.29769 h 1640.84 v 73.28155 h -1640.84 z" /></clipPath></defs><g
     inkscape:groupmode="layer"
     id="layer2"
     inkscape:label="ART"
     transform="translate(-92.074997,-135.73125)"><path
       style="opacity:1;fill:#333333;stroke:#000000;stroke-width:1.2;stroke-linecap:round;stroke-linejoin:round;stroke-dashoffset:2.26772;stroke-opacity:1;paint-order:markers stroke fill;stroke-dasharray:none"
       d="m 112.30739,146.76415 c -0.51618,-1.21734 -2.09077,-0.73239 -2.6789,-1.54553 -3.25982,-4.50688 -12.56297,-2.1111 -12.638944,3.26277 -0.03786,2.67843 5.303144,5.77428 9.170094,5.76995 3.42399,-0.004 3.90569,-3.51155 5.52955,-5.87298 0.26413,-0.38411 0.98688,-0.74476 0.6182,-1.61421 z"
       id="path1"
       sodipodi:nodetypes="ssssss" /><path
       style="opacity:1;fill:#b3b3b3;stroke-width:0.774322;stroke-linecap:round;stroke-linejoin:round;stroke-dashoffset:2.26772;paint-order:markers stroke fill"
       d="m 99.376518,148.13794 c 0.034,-2.36464 3.089202,-3.88201 5.752832,-3.80344 2.51088,0.0741 4.6395,1.74362 4.60217,4.55904 -0.0263,1.98146 -1.74276,3.57386 -3.35927,3.90404 -2.13105,0.43527 -4.71294,-0.33937 -5.70864,-2.02538 -0.54197,-0.91769 -1.311482,-0.93917 -1.287092,-2.63426 z"
       id="path2"
       sodipodi:nodetypes="ssssss" /><path
       style="opacity:1;fill:#e6e6e6;stroke-width:0.5;stroke-linecap:round;stroke-linejoin:round;stroke-dashoffset:2.26772;paint-order:markers stroke fill;stroke:none;stroke-opacity:1;stroke-dasharray:none"
       d="m 100.48448,148.14241 c 0.0746,-2.36455 1.97298,-3.89919 4.63662,-3.82062 2.51088,0.0741 4.63949,1.74363 4.60217,4.55904 -0.0263,1.98146 -1.60685,4.13058 -4.66438,4.07577 -2.6146,-0.0469 -4.68695,-1.24856 -4.57441,-4.81419 z"
       id="path2-1"
       sodipodi:nodetypes="sssss" /><path
       style="opacity:1;fill:url(#pattern11);stroke-width:0.5;stroke-linecap:round;stroke-linejoin:round;stroke-dashoffset:2.26772;paint-order:markers stroke fill;stroke:#b3b3b3;stroke-dasharray:none;stroke-opacity:1"
       d="m 102.0931,148.37675 c 0.0501,-1.59839 1.32431,-2.63578 3.11221,-2.58266 1.68536,0.0501 3.11414,1.17865 3.08909,3.08181 -0.0177,1.33943 -1.07856,2.7922 -3.13084,2.75514 -1.75499,-0.0317 -3.146,-0.84399 -3.07046,-3.25429 z"
       id="path2-1-2"
       sodipodi:nodetypes="sssss" /><ellipse
       style="opacity:1;fill:#333333;stroke-width:0.774322;stroke-linecap:round;stroke-linejoin:round;stroke-dashoffset:2.26772;paint-order:markers stroke fill"
       id="path3"
       cx="104.96616"
       cy="148.62737"
       rx="1.0732795"
       ry="1.1763144" /><ellipse
       style="opacity:1;fill:#ffffff;stroke:none;stroke-width:1.76638;stroke-linecap:round;stroke-linejoin:round;stroke-dashoffset:2.26772;stroke-opacity:1;paint-order:markers stroke fill"
       id="path6"
       cx="42.842091"
       cy="173.40469"
       rx="0.41502512"
       ry="0.50554663"
       transform="matrix(0.94662262,-0.32234394,0.37734266,0.92607371,0,0)" /><ellipse
       style="fill:#ffffff;stroke:none;stroke-width:0.760713;stroke-linecap:round;stroke-linejoin:round;stroke-dashoffset:2.26772;stroke-opacity:1;paint-order:markers stroke fill"
       id="path6-4"
       cx="43.440102"
       cy="174.10774"
       rx="0.17873554"
       ry="0.21771972"
       transform="matrix(0.94662262,-0.32234394,0.37734266,0.92607371,0,0)" /></g></svg>
