<?xml version="1.0" encoding="UTF-8" standalone="no"?>
<!-- Created with Inkscape (http://www.inkscape.org/) -->

<svg
   width="25.4mm"
   height="25.4mm"
   viewBox="0 0 25.4 25.4"
   version="1.1"
   id="svg1"
   xml:space="preserve"
   inkscape:version="1.4.3 (0d15f75, 2025-12-25)"
   sodipodi:docname="WH_SukiradaeTail.svg"
   inkscape:export-filename="WH_SukiradaeTail.png"
   inkscape:export-xdpi="128"
   inkscape:export-ydpi="128"
   xmlns:inkscape="http://www.inkscape.org/namespaces/inkscape"
   xmlns:sodipodi="http://sodipodi.sourceforge.net/DTD/sodipodi-0.dtd"
   xmlns="http://www.w3.org/2000/svg"
   xmlns:svg="http://www.w3.org/2000/svg"><sodipodi:namedview
     id="namedview1"
     pagecolor="#505050"
     bordercolor="#ffffff"
     borderopacity="1"
     inkscape:showpageshadow="0"
     inkscape:pageopacity="0"
     inkscape:pagecheckerboard="1"
     inkscape:deskcolor="#505050"
     inkscape:document-units="mm"
     inkscape:zoom="8.4359982"
     inkscape:cx="44.630166"
     inkscape:cy="42.852072"
     inkscape:window-width="1920"
     inkscape:window-height="1051"
     inkscape:window-x="-9"
     inkscape:window-y="-9"
     inkscape:window-maximized="1"
     inkscape:current-layer="layer2" /><defs
     id="defs1" /><g
     inkscape:groupmode="layer"
     id="layer2"
     inkscape:label="ART"
     transform="translate(-92.074997,-135.73125)"><path
       style="opacity:1;fill:#f9f9f9;stroke:#000000;stroke-width:1;stroke-linecap:round;stroke-linejoin:round;stroke-dasharray:none;stroke-dashoffset:2.26772;stroke-opacity:1;paint-order:markers stroke fill"
       d="m 105.00424,145.39324 c 2.78641,2.03098 -0.41748,9.49763 -5.509166,7.63574 -2.747878,-1.00485 -2.033168,-4.87231 0.24271,-4.05046 0.814496,0.29448 0.851866,1.99595 -0.463473,1.72801 -0.913115,-0.18603 -0.429633,-1.13269 0.01077,-1.13932 -0.639789,-0.31898 -1.502043,1.04257 -0.195864,1.52302 1.852383,0.68131 2.855263,-2.23265 0.921273,-2.97997 -4.101635,-1.58493 -5.454756,4.99001 -0.909042,6.76693 6.947922,2.71595 13.307002,-4.88581 13.554492,-10.57843 0.22731,-3.01444 -6.50177,-4.07967 -7.65171,1.09448 z"
       id="path1"
       sodipodi:nodetypes="cssscssscc" /></g></svg>
