<?xml version="1.0" encoding="UTF-8" standalone="no"?>
<!-- Created with Inkscape (http://www.inkscape.org/) -->

<svg
   width="25.4mm"
   height="25.4mm"
   viewBox="0 0 25.4 25.4"
   version="1.1"
   id="svg1"
   xml:space="preserve"
   inkscape:version="1.4.3 (0d15f75, 2025-12-25)"
   sodipodi:docname="WH_SukiradaeHands.svg"
   inkscape:export-filename="WH_SukiradaeHands.png"
   inkscape:export-xdpi="128"
   inkscape:export-ydpi="128"
   xmlns:inkscape="http://www.inkscape.org/namespaces/inkscape"
   xmlns:sodipodi="http://sodipodi.sourceforge.net/DTD/sodipodi-0.dtd"
   xmlns="http://www.w3.org/2000/svg"
   xmlns:svg="http://www.w3.org/2000/svg"><sodipodi:namedview
     id="namedview1"
     pagecolor="#505050"
     bordercolor="#ffffff"
     borderopacity="1"
     inkscape:showpageshadow="0"
     inkscape:pageopacity="0"
     inkscape:pagecheckerboard="1"
     inkscape:deskcolor="#505050"
     inkscape:document-units="mm"
     inkscape:zoom="8.4359982"
     inkscape:cx="40.836898"
     inkscape:cy="44.867245"
     inkscape:window-width="1920"
     inkscape:window-height="1051"
     inkscape:window-x="-9"
     inkscape:window-y="-9"
     inkscape:window-maximized="1"
     inkscape:current-layer="layer2" /><defs
     id="defs1" /><g
     inkscape:groupmode="layer"
     id="layer2"
     inkscape:label="ART"
     transform="translate(-92.074997,-135.73125)"
     style="display:inline"><path
       id="path5-5"
       style="display:inline;fill:#000000;stroke:#000000;stroke-width:0.886744;stroke-linecap:round;stroke-linejoin:round;stroke-dasharray:none;stroke-dashoffset:2.26772;stroke-opacity:1;paint-order:markers stroke fill"
       d="m 112.07896,140.91131 c -1.301,0.32418 -2.61812,0.72826 -3.7186,0.0366 -3.23115,6.39808 -3.26541,3.76524 -6.26732,4.70656 0,0 -2.568093,-0.65806 -3.260354,0.4092 -1.998128,0.11486 -3.351659,1.88707 -1.414121,3.27549 -0.220192,-1.40786 0.273061,-2.03579 1.285356,-2.18763 0.260566,1.70651 1.375629,1.05395 1.375629,1.05395 0.95789,0.277 1.6278,-0.14057 2.18991,-0.81796 0.6011,0.71099 0.78461,-0.58389 1.76101,-0.0376 -0.63057,0.58826 -2.28458,0.75416 -2.39428,1.41458 -0.74018,0.32442 -1.13596,0.64432 -1.07778,0.95863 0,0 -2.678214,0.83202 -2.439658,2.17159 -1.87947,0.92672 -2.590047,3.73413 0.876605,3.71539 -0.652341,-0.32239 -2.171114,-1.88163 -0.207578,-2.74897 1.204528,0.87939 2.088641,-1.2826 2.088641,-1.2826 0.54752,-0.1495 0.86219,-0.39521 0.92519,-0.7451 0.76941,-0.23143 0.78547,-0.6371 0.96871,-1.004 0.45766,0.58519 1.05863,-0.24624 1.6185,-0.67131 -0.35708,1.29826 -1.4921,1.13965 -1.57818,2.22015 -0.73372,0.17293 -1.83777,1.75201 -0.73089,2.38834 0.19196,2.27616 2.89754,2.08412 3.79055,-0.16451 -0.90218,0.49458 -1.92373,1.08889 -2.31685,0.33131 0.85437,-0.31165 0.84883,-1.48912 0.57004,-2.07582 0.24971,-0.17334 0.44439,-0.3693 0.31115,-0.7011 1.05839,0.17918 1.53862,-1.60797 3.88539,-2.75538 0.152,0.0827 0.23003,0.65202 0.75335,0.68506 0.0631,0.77303 1.20857,1.50105 2.07581,1.17538 0.0378,0.89333 -0.77009,1.40723 -2.22245,1.20013 2.04279,1.62903 3.87841,-0.35817 3.21866,-2.38834 0.57991,-1.40282 -0.54935,-2.09853 -1.45949,-2.2 -0.59695,-0.43325 -1.24097,0.0709 -2.26919,-1.07135 z" /><path
       style="fill:#ffffff;stroke-width:3.99036;stroke-linecap:round;stroke-linejoin:round;stroke-dashoffset:2.26772;paint-order:markers stroke fill"
       d="m 108.36056,140.94771 c -3.23115,6.39807 -3.26573,3.76543 -6.26763,4.70674 0,0 -3.589758,-0.91985 -3.42493,1.17945 0.164971,2.10112 1.41181,1.37156 1.41181,1.37156 0.95789,0.277 1.6278,-0.14044 2.18992,-0.81783 0.6011,0.71099 0.78434,-0.58401 1.76074,-0.0377 -0.63057,0.58826 -2.28445,0.75395 -2.39416,1.41437 -0.74017,0.32442 -1.13587,0.64444 -1.0777,0.95875 0,0 -3.630944,1.128 -2.060727,2.87183 1.349774,1.49901 2.378517,-1.01651 2.378517,-1.01651 0.54752,-0.1495 0.86244,-0.39519 0.92543,-0.74508 0.76941,-0.23143 0.78542,-0.63697 0.96867,-1.00387 0.45766,0.58519 1.05861,-0.2461 1.61848,-0.67118 -0.35708,1.29827 -1.49221,1.13963 -1.57828,2.22013 -0.8409,0.19818 -2.16843,2.2428 -0.0964,2.59915 1.67815,0.2886 1.75953,-1.3824 1.40911,-2.11987 0.24971,-0.17334 0.44461,-0.36938 0.31138,-0.70118 1.05839,0.17917 1.53861,-1.60797 3.88539,-2.75538 0.152,0.0826 0.23009,0.65184 0.75341,0.68489 0.0784,0.9602 1.82614,1.85095 2.63721,0.73918 1.3927,-1.90898 0.0354,-2.83372 -1.02474,-2.95191 -0.59695,-0.43326 -1.2413,0.0709 -2.26952,-1.07131 l 3.66221,-4.89082 c -1.30099,0.32418 -2.61776,0.72823 -3.71823,0.0366 z"
       id="path5"
       sodipodi:nodetypes="ccscccccscccccsccccscccc" /><path
       style="fill:#4d4d4d;stroke-width:3.99036;stroke-linecap:round;stroke-linejoin:round;stroke-dashoffset:2.26772;paint-order:markers stroke fill"
       d="m 98.995567,155.61005 c -3.755064,0.0203 -2.608889,-3.27537 -0.384948,-3.90495 0.890938,-0.18307 0.948368,0.28618 0.755728,0.95114 -2.806726,0.79837 -1.078565,2.60402 -0.37078,2.95381 z"
       id="path1"
       sodipodi:nodetypes="cccc" /><path
       style="fill:#4d4d4d;stroke-width:3.99036;stroke-linecap:round;stroke-linejoin:round;stroke-dashoffset:2.26772;paint-order:markers stroke fill"
       d="m 99.728167,146.12327 c 0.475253,0.10922 0.303963,0.84084 -0.0338,1.00759 -1.662513,-0.1227 -2.558793,0.39813 -2.275684,2.20826 -2.216577,-1.58837 -0.126094,-3.67899 2.309464,-3.21585 z"
       id="path2"
       sodipodi:nodetypes="cccc" /><path
       style="fill:#4d4d4d;stroke-width:3.99036;stroke-linecap:round;stroke-linejoin:round;stroke-dashoffset:2.26772;paint-order:markers stroke fill"
       d="m 102.07143,153.37104 c 0.38844,-1.28725 1.26843,-1.09121 1.31646,-0.4556 -0.0367,2.12449 1.322,1.32287 2.48263,0.68662 -0.9418,2.37149 -3.90001,2.45522 -3.79909,-0.23102 z"
       id="path3"
       sodipodi:nodetypes="cccc" /><path
       style="fill:#4d4d4d;stroke-width:3.99036;stroke-linecap:round;stroke-linejoin:round;stroke-dashoffset:2.26772;paint-order:markers stroke fill"
       d="m 110.61487,148.92484 c 1.14753,1.6543 0.38928,2.83278 -1.68791,2.53657 2.24769,1.79244 4.2444,-0.79274 2.94235,-2.99656 -0.3956,-0.44119 -1.06911,-0.49557 -1.25443,0.46001 z"
       id="path4"
       sodipodi:nodetypes="cccc" /></g></svg>
