<?xml version="1.0" encoding="UTF-8" standalone="no"?>
<!-- Created with Inkscape (http://www.inkscape.org/) -->

<svg
   width="45.155556mm"
   height="45.155556mm"
   viewBox="0 0 45.155556 45.155556"
   version="1.1"
   id="svg1"
   xml:space="preserve"
   inkscape:version="1.4.3 (0d15f75, 2025-12-25)"
   sodipodi:docname="WH_StraightHorns.svg"
   inkscape:export-filename="WH_SukiradaeHorns.png"
   inkscape:export-xdpi="72"
   inkscape:export-ydpi="72"
   xmlns:inkscape="http://www.inkscape.org/namespaces/inkscape"
   xmlns:sodipodi="http://sodipodi.sourceforge.net/DTD/sodipodi-0.dtd"
   xmlns="http://www.w3.org/2000/svg"
   xmlns:svg="http://www.w3.org/2000/svg"><sodipodi:namedview
     id="namedview1"
     pagecolor="#505050"
     bordercolor="#ffffff"
     borderopacity="1"
     inkscape:showpageshadow="0"
     inkscape:pageopacity="0"
     inkscape:pagecheckerboard="1"
     inkscape:deskcolor="#505050"
     inkscape:document-units="mm"
     inkscape:zoom="5.9651516"
     inkscape:cx="78.707136"
     inkscape:cy="66.134111"
     inkscape:window-width="1920"
     inkscape:window-height="1051"
     inkscape:window-x="-9"
     inkscape:window-y="-9"
     inkscape:window-maximized="1"
     inkscape:current-layer="layer1" /><defs
     id="defs1" /><g
     inkscape:label="Layer 1"
     inkscape:groupmode="layer"
     id="layer1"
     style="opacity:1"
     transform="translate(-79.490837,-48.345272)"><path
       style="fill:#ffffff;stroke:#000000;stroke-width:3;stroke-linecap:round;stroke-linejoin:round;stroke-dashoffset:2.26772;paint-order:markers stroke fill;stroke-opacity:1;stroke-dasharray:none"
       d="m 102.06744,59.70011 c -9.773367,-6.77e-4 -10.512087,9.225806 -10.512087,9.225806 l 2.04032,3.947581 1.41936,0.665322 c 2.32123,-1.981183 4.33199,-1.360215 5.633057,0.931452 l 2.92742,0.08871 c 0.7836,-2.454301 3.44489,-3.030915 5.45564,-1.064517 l 1.33065,-0.487903 2.2621,-4.03629 c 0,0 -0.78308,-9.269484 -10.55646,-9.270161 z"
       id="path1"
       sodipodi:nodetypes="zccccccccz" /><path
       style="fill:#ffffff;stroke:#000000;stroke-width:2.5;stroke-linecap:round;stroke-linejoin:round;stroke-dashoffset:2.26772;paint-order:markers stroke fill;stroke-opacity:1;stroke-dasharray:none"
       d="m 88.539224,56.861401 c -0.665322,5.5 1.744456,11.032996 5.544354,11.399193 0.796677,0.07678 2.664605,0.362642 3.311613,-1.427195 0.647008,-1.789836 -0.314552,-2.677967 -1.138225,-3.274418 -3.584695,-1.320223 -5.854838,-3.814515 -7.717742,-6.69758 z"
       id="path2"
       sodipodi:nodetypes="cszcc" /><path
       style="fill:#ffffff;stroke:#000000;stroke-width:2.5;stroke-linecap:round;stroke-linejoin:round;stroke-dashoffset:2.26772;paint-order:markers stroke fill;stroke-opacity:1;stroke-dasharray:none"
       d="m 115.61639,56.861401 c 0.66532,5.5 -1.74446,11.032996 -5.54436,11.399193 -0.79668,0.07678 -2.66461,0.362642 -3.31161,-1.427195 -0.64701,-1.789836 0.31455,-2.677967 1.13822,-3.274418 3.5847,-1.320223 5.85484,-3.814515 7.71775,-6.69758 z"
       id="path2-5"
       sodipodi:nodetypes="cszcc" /></g></svg>
