<?xml version="1.0" encoding="UTF-8" standalone="no"?>
<!-- Created with Inkscape (http://www.inkscape.org/) -->

<svg
   width="25.4mm"
   height="25.4mm"
   viewBox="0 0 25.4 25.4"
   version="1.1"
   id="svg1"
   xml:space="preserve"
   inkscape:version="1.4.3 (0d15f75, 2025-12-25)"
   sodipodi:docname="WH_SukiradaeReproduction.svg"
   inkscape:export-filename="WH_SukiradaeReproduction.png"
   inkscape:export-xdpi="128"
   inkscape:export-ydpi="128"
   xmlns:inkscape="http://www.inkscape.org/namespaces/inkscape"
   xmlns:sodipodi="http://sodipodi.sourceforge.net/DTD/sodipodi-0.dtd"
   xmlns="http://www.w3.org/2000/svg"
   xmlns:svg="http://www.w3.org/2000/svg"><sodipodi:namedview
     id="namedview1"
     pagecolor="#505050"
     bordercolor="#ffffff"
     borderopacity="1"
     inkscape:showpageshadow="0"
     inkscape:pageopacity="0"
     inkscape:pagecheckerboard="1"
     inkscape:deskcolor="#505050"
     inkscape:document-units="mm"
     inkscape:zoom="5.9651515"
     inkscape:cx="40.988062"
     inkscape:cy="49.034798"
     inkscape:window-width="1920"
     inkscape:window-height="1051"
     inkscape:window-x="-9"
     inkscape:window-y="-9"
     inkscape:window-maximized="1"
     inkscape:current-layer="layer2" /><defs
     id="defs1" /><g
     inkscape:groupmode="layer"
     id="layer2"
     inkscape:label="ART"
     transform="translate(-92.074997,-135.73125)"><path
       id="path6-7"
       style="fill:#000000;stroke:#000000;stroke-width:1.2;stroke-linecap:round;stroke-linejoin:round;stroke-dasharray:none;stroke-dashoffset:2.26772;stroke-opacity:1;paint-order:markers stroke fill"
       d="m 99.085818,140.16266 c -0.12001,0.0156 -0.183529,0.57439 -0.355736,0.56105 -0.09212,-0.008 -0.03053,-0.41946 -0.171597,-0.3942 -0.08876,0.0159 -0.185531,0.52058 -0.259782,0.55631 -0.06826,0.0328 -0.170199,-0.28924 -0.217852,-0.25503 -0.0624,0.0447 0.005,0.42305 -0.04625,0.46854 -0.06499,0.0577 -0.168962,-0.0508 -0.232122,0.009 -0.0931,0.088 -0.03956,0.28052 -0.106328,0.38987 -0.03463,0.0568 -0.107466,0.0622 -0.139185,0.12061 -0.07775,0.14322 -0.166209,0.38949 -0.113681,0.53468 -0.196873,0.13454 -0.520953,0.48375 -0.514797,0.66782 0.193821,0.10478 0.442445,0.0506 0.670845,0.0817 0.05799,0.008 0.109381,0.0556 0.163817,0.0951 -0.03463,0.43194 -0.167364,1.00933 0.299112,0.86968 0,0 0.108922,0.34531 0.417544,0.2507 0.101502,-0.0311 0.166159,-0.0855 0.207479,-0.14436 0.07193,0.66817 -0.146151,2.15397 0.156474,3.7134 0.152538,2.40512 1.224501,4.1762 3.810661,4.90295 0.32088,0.56252 0.8936,0.92094 1.62481,0.91721 -0.15638,0.6952 -0.58026,1.33712 -1.17268,1.9451 -0.38476,-0.054 -0.81967,-0.0123 -1.27209,0.22304 -0.15816,0.0823 -0.3215,0.15944 -0.44608,0.27534 0.0123,0.18999 0.94771,-0.0918 1.4558,-0.22304 -0.33289,0.20439 -0.75798,0.37202 -0.76074,0.70846 0.13443,0.064 0.55312,-0.25035 0.76074,-0.34105 0.36637,0.45153 0.91982,-0.0844 1.66586,-0.18371 -0.34122,0.32948 -0.7828,0.64057 -0.76074,1.0361 0.0892,0.10946 0.37682,-0.0607 0.5939,-0.34018 0.24321,-0.31315 0.57026,-0.48519 1.09833,-0.64362 0.1051,-0.36824 0.7227,-0.34905 0.87876,-0.15733 l -0.0786,-0.35401 c 0.0693,-0.32727 -0.17081,-0.3761 -0.44608,-0.39333 0.13214,-0.45426 0.38649,-0.86801 0.68078,-1.26821 0.46887,-0.11086 0.79813,-0.44258 1.03307,-0.92328 0.045,-0.004 0.0903,-0.009 0.13572,-0.0125 1.14483,-0.37831 1.95743,-1.07941 1.84957,-2.67559 0.52731,-0.27034 0.95145,-0.52861 0.61639,-0.69548 0.18639,-0.20371 0.32707,-0.48125 0.0921,-0.57704 0.32892,-0.28921 0.46663,-0.51932 0.34104,-0.66869 0.49529,-0.48521 0.57506,-0.77357 0.40674,-0.94446 0.31755,-0.33757 0.39007,-0.59347 0.0787,-0.72141 1.16575,-1.19804 1.42207,-2.37567 0.77372,-2.19061 0.32914,-0.6278 0.77653,-1.57742 0.13097,-1.42986 0,0 0.19278,-0.54929 0,-0.64275 -0.0602,-0.0292 -0.12341,-0.041 -0.18934,-0.0389 -0.63722,0.0204 -1.48951,1.36373 -1.48951,1.36373 -0.26663,-0.044 -0.7341,0.71482 -1.16748,1.3378 -0.15476,-0.26046 -0.97114,0.65452 -1.5215,0.85281 -0.68461,-0.0714 -1.5077,0.29249 -2.26928,0.28831 -0.74537,-0.004 -1.6951,-0.61735 -2.25588,-0.39334 -1.38359,-1.05926 -1.56411,-3.67707 -3.633446,-4.28786 0.359406,-0.39288 0.516028,-0.81386 0.171169,-1.01923 -0.107764,-0.0641 -0.212175,0.23051 -0.315537,0.18543 -0.09783,-0.0426 -0.01549,-0.43152 -0.171601,-0.4357 -0.002,-5e-5 -0.0029,-1.7e-4 -0.0059,0 z m 5.751012,13.33819 c 0.38979,0.17765 0.7315,0.27981 1.03176,0.31597 -0.18927,0.47098 -0.40536,0.94201 -0.76809,1.41301 -0.30561,-0.11006 -0.35733,-0.36104 -0.94446,-0.31468 0.10619,-0.47132 0.40125,-0.94297 0.68079,-1.4143 z" /><path
       style="fill:#999999;stroke:none;stroke-width:0.167289;stroke-linecap:round;stroke-linejoin:round;stroke-dasharray:none;stroke-dashoffset:2.26772;stroke-opacity:1;paint-order:markers stroke fill"
       d="m 104.31353,153.32789 c -0.11923,0.76491 -0.56354,1.46481 -1.20675,2.12494 -0.38477,-0.054 -0.81992,-0.0125 -1.27235,0.22298 -0.15815,0.0823 -0.3214,0.15957 -0.44597,0.27547 0.0123,0.18998 0.94788,-0.0918 1.45598,-0.22299 -0.33289,0.20438 -0.75801,0.37186 -0.76078,0.7083 0.13443,0.064 0.55315,-0.25034 0.76078,-0.34103 0.36638,0.45153 0.9198,-0.0844 1.66585,-0.18364 -0.34123,0.32948 -0.78285,0.6407 -0.76078,1.03623 0.0892,0.10946 0.37689,-0.0609 0.59397,-0.34041 0.24321,-0.31315 0.57003,-0.48493 1.09811,-0.64336 0.1051,-0.36823 0.72278,-0.34912 0.87884,-0.15739 l -0.0787,-0.35416 c 0.0693,-0.32728 -0.17071,-0.37628 -0.44598,-0.39351 0.15729,-0.54075 0.48767,-1.0238 0.8526,-1.49533 l -0.69519,0.0393 c -0.21164,0.54216 -0.43505,1.08435 -0.85261,1.62651 -0.3056,-0.11005 -0.35728,-0.36117 -0.94442,-0.31481 0.13201,-0.58589 0.55568,-1.17178 0.87883,-1.75768 l -0.83947,0.22299 z"
       id="path6"
       sodipodi:nodetypes="ccsccccccsccccccccccc" /><path
       id="path5"
       style="fill:#f9f9f9;stroke:none;stroke-width:0.167289;stroke-linecap:round;stroke-linejoin:round;stroke-dasharray:none;stroke-dashoffset:2.26772;stroke-opacity:1;paint-order:markers stroke fill"
       d="m 111.74495,142.27072 c -0.63724,0.0204 -1.48952,1.36374 -1.48952,1.36374 -0.26663,-0.044 -0.7341,0.7148 -1.16749,1.33779 -0.15476,-0.26046 -0.97113,0.65452 -1.5215,0.85282 -0.6846,-0.0714 -1.50768,0.29248 -2.26928,0.2883 -0.74536,-0.004 -1.6951,-0.61735 -2.25588,-0.39334 l -4.197522,1.96757 c 0.15253,2.40511 1.224512,4.17619 3.810662,4.90295 0.38643,0.67745 1.13817,1.05909 2.09206,0.86837 1.49702,0.71346 2.30717,0.34158 2.76291,-0.59088 0.045,-0.004 0.0903,-0.008 0.13572,-0.0126 1.14482,-0.37831 1.95742,-1.0794 1.84956,-2.67558 0.52731,-0.27036 0.95144,-0.52863 0.6164,-0.69549 0.18638,-0.20372 0.32706,-0.48125 0.0921,-0.57704 0.32891,-0.28921 0.46663,-0.51933 0.34104,-0.66868 0.4953,-0.48522 0.57505,-0.77358 0.40674,-0.94446 0.31754,-0.33758 0.39003,-0.59347 0.0787,-0.72141 1.16575,-1.19804 1.42208,-2.37567 0.77372,-2.19061 0.32916,-0.6278 0.77654,-1.57743 0.13097,-1.42987 0,0 0.19278,-0.54929 0,-0.64275 -0.0601,-0.0291 -0.1234,-0.041 -0.18932,-0.0389 z" /><path
       style="fill:#cccccc;stroke:none;stroke-width:0.167289;stroke-linecap:round;stroke-linejoin:round;stroke-dasharray:none;stroke-dashoffset:2.26772;stroke-opacity:1;paint-order:markers stroke fill"
       d="m 98.974943,141.33901 c 2.483717,0.35369 2.591907,3.25221 4.066337,4.38102 -0.72307,1.70784 -2.018,2.49962 -4.197522,1.96757 -0.437744,-2.25573 0.214416,-4.35711 -0.49843,-4.05314 -0.47398,-1.2826 -0.264108,-2.04775 0.629615,-2.29545 z"
       id="path4"
       sodipodi:nodetypes="ccccc" /><path
       id="path2"
       style="fill:#999999;stroke:none;stroke-width:4.18221;stroke-linecap:round;stroke-linejoin:round;stroke-dashoffset:2.26772;paint-order:markers stroke fill"
       d="m 99.086249,140.16266 c -0.120279,0.0143 -0.183777,0.5744 -0.356171,0.56105 -0.09212,-0.008 -0.03054,-0.41945 -0.171601,-0.39419 -0.08876,0.0159 -0.185528,0.52057 -0.259779,0.5563 -0.06827,0.0328 -0.170198,-0.28924 -0.217851,-0.25503 -0.06238,0.0447 0.0049,0.42305 -0.04625,0.46854 -0.06497,0.0577 -0.168954,-0.0507 -0.232115,0.009 -0.0931,0.088 -0.03959,0.28053 -0.106331,0.38988 -0.03463,0.0568 -0.107464,0.0622 -0.139183,0.1206 -0.100398,0.18495 -0.218654,0.54135 -0.02809,0.63064 0.06348,0.0298 0.134285,0.0466 0.210503,0.0527 l 0.03069,0.5269 c 0.0068,0.42696 -0.238816,1.19766 0.292249,1.03868 0,0 0.10887,0.3453 0.417495,0.2507 0.308626,-0.0946 0.278365,-0.40371 0.278365,-0.40371 0.754373,-0.10512 1.069421,-0.38949 0.945746,-0.85325 0.268974,-0.19014 0.266082,-0.34932 -0.0088,-0.47763 -0.332566,-0.60406 -0.588708,-0.33316 -0.787543,-0.51567 0.658977,-0.46393 1.152327,-1.16914 0.671701,-1.45536 -0.107764,-0.0641 -0.212175,0.23051 -0.315538,0.18543 -0.09783,-0.0426 -0.01549,-0.43152 -0.171601,-0.4357 -0.002,-5e-5 -0.0039,-2.3e-4 -0.0059,0 z"
       sodipodi:nodetypes="cccccccccccccscccccccc" /><path
       style="fill:#ffffff;stroke:none;stroke-width:4.18221;stroke-linecap:round;stroke-linejoin:round;stroke-dashoffset:2.26772;paint-order:markers stroke fill"
       d="m 97.57143,142.09979 c -0.109242,-0.0284 -0.650668,0.48394 -0.64273,0.72143 0.193826,0.10478 0.442205,0.0509 0.670603,0.0819 0.141049,0.0192 0.243173,0.27231 0.444337,0.0755 0.277569,-0.27167 -0.08211,-0.29906 -0.157404,-0.43286 -0.09906,-0.17602 -0.05634,-0.37873 -0.314806,-0.44598 z"
       id="path1"
       sodipodi:nodetypes="scssss" /><circle
       style="fill:#4d4d4d;stroke:none;stroke-width:0.167289;stroke-linecap:round;stroke-linejoin:round;stroke-dasharray:none;stroke-dashoffset:2.26772;stroke-opacity:1;paint-order:markers stroke fill"
       id="path7"
       cx="98.85688"
       cy="142.09978"
       r="0.30168954" /></g></svg>
