<?xml version="1.0" encoding="UTF-8" standalone="no"?>
<!-- Created with Inkscape (http://www.inkscape.org/) -->

<svg
   width="25.4mm"
   height="25.4mm"
   viewBox="0 0 25.4 25.4"
   version="1.1"
   id="svg1"
   xml:space="preserve"
   inkscape:version="1.4.3 (0d15f75, 2025-12-25)"
   sodipodi:docname="WH_SukiradaeReproduction.svg"
   inkscape:export-filename="WH_SukiradaeReproduction.png"
   inkscape:export-xdpi="128"
   inkscape:export-ydpi="128"
   xmlns:inkscape="http://www.inkscape.org/namespaces/inkscape"
   xmlns:sodipodi="http://sodipodi.sourceforge.net/DTD/sodipodi-0.dtd"
   xmlns="http://www.w3.org/2000/svg"
   xmlns:svg="http://www.w3.org/2000/svg"><sodipodi:namedview
     id="namedview1"
     pagecolor="#505050"
     bordercolor="#ffffff"
     borderopacity="1"
     inkscape:showpageshadow="0"
     inkscape:pageopacity="0"
     inkscape:pagecheckerboard="1"
     inkscape:deskcolor="#505050"
     inkscape:document-units="mm"
     inkscape:zoom="8.4359982"
     inkscape:cx="41.073977"
     inkscape:cy="38.347566"
     inkscape:window-width="1920"
     inkscape:window-height="1051"
     inkscape:window-x="-9"
     inkscape:window-y="-9"
     inkscape:window-maximized="1"
     inkscape:current-layer="layer2" /><defs
     id="defs1" /><g
     inkscape:groupmode="layer"
     id="layer2"
     inkscape:label="ART"
     transform="translate(-92.074997,-135.73125)"
     style="display:inline"><circle
       style="fill:#ececec;stroke:#000000;stroke-width:1;stroke-linecap:round;stroke-linejoin:round;stroke-dashoffset:2.26772;paint-order:markers stroke fill;stroke-dasharray:none"
       id="path1"
       cx="104.98112"
       cy="148.91965"
       r="5.2909226" /><path
       id="path1-5"
       style="display:inline;fill:#cccccc;stroke:none;stroke-width:0.799508;stroke-linecap:round;stroke-linejoin:round;stroke-dashoffset:2.26772;paint-order:markers stroke fill"
       d="m 108.39164,144.87461 a 5.3285359,5.3285359 0 0 1 0.87755,2.92929 5.3285359,5.3285359 0 0 1 -5.32891,5.32849 5.3285359,5.3285359 0 0 1 -3.23171,-1.09239 5.2909228,5.2909228 0 0 0 4.27246,2.17073 5.2909228,5.2909228 0 0 0 5.29089,-5.29089 5.2909228,5.2909228 0 0 0 -1.88028,-4.04523 z" /><path
       id="path1-5-1"
       style="display:inline;fill:#ececec;stroke:none;stroke-width:0.799508;stroke-linecap:round;stroke-linejoin:round;stroke-dashoffset:2.26772;paint-order:markers stroke fill"
       d="m 109.84389,146.85281 a 5.4704019,5.4704019 0 0 1 0.2512,1.60718 5.4704019,5.4704019 0 0 1 -5.4702,5.47021 5.4704019,5.4704019 0 0 1 -2.84253,-0.79615 5.2909228,5.2909228 0 0 0 3.19867,1.07668 5.2909228,5.2909228 0 0 0 5.29089,-5.29089 5.2909228,5.2909228 0 0 0 -0.42803,-2.06703 z" /><circle
       style="fill:#ffffff;stroke:none;stroke-width:0.799508;stroke-linecap:round;stroke-linejoin:round;stroke-dashoffset:2.26772;paint-order:markers stroke fill"
       id="path2"
       cx="101.92192"
       cy="147.91663"
       r="1.1033204" /><circle
       style="fill:#ffffff;stroke:none;stroke-width:0.799508;stroke-linecap:round;stroke-linejoin:round;stroke-dashoffset:2.26772;paint-order:markers stroke fill"
       id="path3"
       cx="103.52674"
       cy="146.01089"
       r="0.65196204" /></g></svg>
