<?xml version="1.0" encoding="UTF-8" standalone="no"?>
<!-- Created with Inkscape (http://www.inkscape.org/) -->

<svg
   width="256"
   height="256"
   viewBox="0 0 256 256"
   version="1.1"
   id="svg1"
   xml:space="preserve"
   inkscape:version="1.4.3 (0d15f75, 2025-12-25)"
   sodipodi:docname="WH_SukiradaeFangs.svg"
   inkscape:export-filename="WH_SukiradaeFangs.png"
   inkscape:export-xdpi="96"
   inkscape:export-ydpi="96"
   xmlns:inkscape="http://www.inkscape.org/namespaces/inkscape"
   xmlns:sodipodi="http://sodipodi.sourceforge.net/DTD/sodipodi-0.dtd"
   xmlns="http://www.w3.org/2000/svg"
   xmlns:svg="http://www.w3.org/2000/svg"><sodipodi:namedview
     id="namedview1"
     pagecolor="#505050"
     bordercolor="#ffffff"
     borderopacity="1"
     inkscape:showpageshadow="0"
     inkscape:pageopacity="0"
     inkscape:pagecheckerboard="1"
     inkscape:deskcolor="#505050"
     inkscape:document-units="mm"
     inkscape:zoom="1.5304854"
     inkscape:cx="72.199317"
     inkscape:cy="176.74131"
     inkscape:window-width="1920"
     inkscape:window-height="1051"
     inkscape:window-x="-9"
     inkscape:window-y="-9"
     inkscape:window-maximized="1"
     inkscape:current-layer="layer1" /><defs
     id="defs1" /><g
     inkscape:label="Layer 1"
     inkscape:groupmode="layer"
     id="layer1"
     transform="translate(36.360636,14.841987)"><path
       id="path2-7"
       style="display:inline;fill:#000000;stroke:#000000;stroke-width:10.0528;stroke-linecap:round;stroke-linejoin:round;stroke-dasharray:none;stroke-dashoffset:2.26772;stroke-opacity:1;paint-order:markers stroke fill"
       d="m 106.82028,38.312713 c -4.25038,0.168527 -9.431014,2.152331 -12.4942,5.215519 -2.690027,-5.708109 -16.992842,-2.362013 -22.241677,5.904904 -2.886862,-1.50904 -6.298871,-0.656246 -10.235499,2.558667 -8.266921,-4.26468 -18.174131,1.837205 -20.86416,14.762467 0,0 -1.723464,4.323806 -3.904982,10.26171 -4.317727,10.989965 -9.194894,23.27794 -9.085974,30.48226 0.121336,8.0252 0.772538,19.76697 3.136135,31.17953 0.467684,3.09435 1.00269,6.45632 1.621739,10.36448 1.250645,7.89553 8.18586,15.36872 11.45201,18.50894 1.035143,0.99523 1.701734,1.55533 1.702032,1.55558 -4.165309,7.37002 7.217239,20.33924 18.699071,19.09265 6.870492,5.01187 13.865741,7.65215 21.257738,2.75545 7.817072,8.70772 13.046768,4.47969 18.305077,0.39358 10.78464,6.34766 13.5738,-3.29612 19.68342,-6.29848 8.50123,3.3461 10.11537,-4.02077 14.36847,-7.28283 12.22908,-4.22613 13.81396,-19.30075 11.61302,-24.60357 -3.87551,2.59973 -4.15069,6.20635 -9.22118,5.48137 0.99371,-2.91195 1.45059,-5.54337 1.46448,-8.03296 0.36453,-10.19746 -7.94165,-20.69065 -13.81639,-29.76374 -1.49118,-2.54945 -3.03145,-5.31372 -4.58189,-8.35124 -1.7e-4,-3.5e-4 -2.4e-4,-6.5e-4 -4.2e-4,-8.9e-4 -0.81,-2.07213 -1.21086,-4.01054 -1.00724,-5.78466 1.5396,-13.414439 17.08049,-15.806531 22.43556,-29.56322 3.25324,3.812877 6.00997,8.221412 8.27011,13.226019 5.18323,-9.579127 1.5746,-28.737233 -5.51132,-42.71226 -0.45927,-3.674186 -8.00424,-3.215084 -12.59697,0.787153 -0.77115,-2.132711 -1.7254,-1.74427 -4.52739,-2.165005 2.16515,-7.282762 -10.82573,-8.266723 -17.12434,-4.723756 -0.74631,-2.411185 -3.48938,-3.378296 -6.79523,-3.247219 z m 8.02714,30.973181 c 0.25643,9.049501 -5.74859,27.052021 -10.48305,38.409136 -2.97311,7.13197 32.22958,56.37313 -11.416224,63.18325 -3.977666,0.62064 -7.585591,0.33672 -10.873293,-0.6848 1.087336,-3.98795 0.972254,-9.80888 -0.345733,-14.27445 -4.427365,4.05484 -8.06368,5.9669 -11.16702,6.69705 -11.740258,-12.49682 -17.974228,-36.17966 -23.672453,-54.33027 -2.529164,-8.05618 8.843929,-10.170445 14.443363,-23.241857 2.792793,3.664596 5.457993,7.737591 7.995521,12.219192 3.93663,-3.28052 4.592921,-13.056397 2.95266,-19.486222 16.589629,-4.863778 30.579039,-7.669216 42.566229,-8.491029 z" /><path
       style="display:inline;fill:#cccccc;stroke:none;stroke-width:0.201273;stroke-linecap:round;stroke-linejoin:round;stroke-dashoffset:2.26772;paint-order:markers stroke fill"
       d="m 40.984666,66.754089 c -4.444543,12.553098 -13.135873,31.153446 -12.990872,40.744101 0.250371,16.5601 2.75564,48.94541 17.911658,61.60824 l 21.651452,16.33701 c 32.712006,5.26773 55.197176,-3.90241 70.071966,-23.81662 16.04336,-19.03606 -16.48757,-41.59914 -14.95918,-54.91595 1.75364,-15.279406 21.67231,-16.258808 24.01343,-36.020153 l -34.44549,-6.889099 c 7.00009,1.826111 -1.56449,28.759822 -7.87326,43.893412 -2.97311,7.13197 32.22959,56.37275 -11.416214,63.18287 C 65.1949,175.20829 55.439482,135.51952 46.889608,108.28551 43.683619,98.073445 62.81608,97.409035 64.210771,71.871705 Z"
       id="path2"
       sodipodi:nodetypes="cscccsccssscc" /><path
       id="path1"
       style="display:inline;fill:#ffffff;stroke:none;stroke-width:0.201273;stroke-linecap:round;stroke-linejoin:round;stroke-dashoffset:2.26772;paint-order:markers stroke fill"
       d="m 106.8201,38.312528 c -4.25038,0.168529 -9.431008,2.15233 -12.494199,5.215519 -2.690028,-5.708111 -16.992842,-2.362015 -22.241679,5.904903 -2.88686,-1.50904 -6.298871,-0.656245 -10.235499,2.558667 -8.266918,-4.26468 -18.174129,1.837206 -20.864159,14.762467 0,0 -13.214408,33.154981 -12.781269,41.930936 0.855166,17.32681 1.979003,24.13738 4.548185,40.35704 1.647016,10.39787 13.152797,20.06349 13.154045,20.06453 -4.165309,7.37001 7.217237,20.33925 18.699068,19.09264 6.870492,5.01187 13.865741,7.65215 21.257738,2.75546 7.817073,8.70772 13.046769,4.47968 18.305069,0.39358 10.78465,6.34766 13.5738,-3.29611 19.68343,-6.29848 8.50122,3.3461 10.11536,-4.02077 14.36847,-7.28284 12.22907,-4.22611 13.8141,-19.30092 11.61317,-24.60375 -3.87551,2.59974 -4.1509,6.20641 -9.22139,5.48142 5.49876,-16.11355 -5.43868,-23.62749 -16.93416,-46.14906 -0.13351,-0.009 -0.26201,-0.0113 -0.38609,-0.007 -3.84635,0.11505 -3.19926,6.20713 -0.62115,10.16602 17.6559,27.11197 -1.04051,45.45827 -19.82737,52.18224 -7.454135,2.66791 -18.415044,0.28381 -22.097728,-1.59635 2.37601,-3.35812 2.704266,-11.49379 0.984358,-17.32114 -14.455122,13.23883 -20.479039,3.63448 -27.045316,4.63804 -3.778015,-5.47726 -8.843518,-10.40467 -10.019157,-16.50698 -2.928393,-15.20023 -13.648793,-27.51508 -14.111774,-35.37076 -0.612366,-10.390355 18.395039,-5.42124 24.190426,-31.283972 5.257268,5.357096 10.118905,11.979628 14.58523,19.867737 3.936631,-3.28052 4.59285,-13.056442 2.95259,-19.486267 28.868601,-8.463651 49.863771,-10.694483 66.135151,-7.085908 6.2986,4.986396 11.28507,11.547315 14.95926,19.683012 5.18323,-9.579126 1.5746,-28.737233 -5.51133,-42.712262 -0.45928,-3.674186 -8.00423,-3.215084 -12.59696,0.787155 -0.77115,-2.132795 -1.72541,-1.744353 -4.52738,-2.165089 2.16514,-7.282762 -10.82574,-8.266722 -17.12435,-4.723758 -0.74631,-2.411184 -3.48939,-3.378294 -6.79523,-3.247217 z"
       sodipodi:nodetypes="sccccsscccccccccssscccsscccccccccs" /></g></svg>
