<?xml version="1.0" encoding="UTF-8" standalone="no"?>
<!-- Created with Inkscape (http://www.inkscape.org/) -->

<svg
   width="45.155556mm"
   height="45.155556mm"
   viewBox="0 0 45.155556 45.155556"
   version="1.1"
   id="svg1"
   xml:space="preserve"
   inkscape:version="1.4.3 (0d15f75, 2025-12-25)"
   sodipodi:docname="WH_SukiradaeHorns.svg"
   inkscape:export-filename="WH_SukiradaeHorns.png"
   inkscape:export-xdpi="72"
   inkscape:export-ydpi="72"
   xmlns:inkscape="http://www.inkscape.org/namespaces/inkscape"
   xmlns:sodipodi="http://sodipodi.sourceforge.net/DTD/sodipodi-0.dtd"
   xmlns="http://www.w3.org/2000/svg"
   xmlns:svg="http://www.w3.org/2000/svg"><sodipodi:namedview
     id="namedview1"
     pagecolor="#505050"
     bordercolor="#ffffff"
     borderopacity="1"
     inkscape:showpageshadow="0"
     inkscape:pageopacity="0"
     inkscape:pagecheckerboard="1"
     inkscape:deskcolor="#505050"
     inkscape:document-units="mm"
     inkscape:zoom="2.9825758"
     inkscape:cx="34.030988"
     inkscape:cy="71.917703"
     inkscape:window-width="1920"
     inkscape:window-height="1051"
     inkscape:window-x="-9"
     inkscape:window-y="-9"
     inkscape:window-maximized="1"
     inkscape:current-layer="layer1" /><defs
     id="defs1" /><g
     inkscape:label="Layer 1"
     inkscape:groupmode="layer"
     id="layer1"
     style="opacity:1"
     transform="translate(-79.490837,-48.345272)"><path
       id="path6-5"
       style="fill:#000000;stroke:#000000;stroke-width:1.24291;stroke-linecap:round;stroke-linejoin:round;stroke-dasharray:none;stroke-dashoffset:2.26772;stroke-opacity:1;paint-order:markers stroke fill"
       d="m 112.63155,56.924479 c -0.45017,0.005 -1.14442,1.08399 -1.86608,2.283568 -0.74821,0.778408 -1.56566,1.556544 -2.41544,2.334951 -0.73984,-0.44572 -1.59081,-0.08553 -2.34009,0.653427 -0.47637,-0.02331 -0.9332,-0.02672 -1.37322,-0.01371 1.02137,-1.95857 2.18329,-4.497002 1.619,-5.055706 -0.76111,0.577907 -1.59065,1.032854 -2.02151,2.205207 -0.59194,0.497036 -1.182,1.004196 -1.75304,1.626716 -0.45592,-0.830581 -0.95059,-1.628211 -2.111,-1.854944 -0.0822,-0.627544 -0.420182,-1.035571 -0.987422,-1.247334 -0.48819,0.328179 -0.54365,2.331858 -1.689234,3.846053 -0.829495,0.112581 -0.900383,0.776762 -0.98742,1.429318 -0.297239,0.04818 -0.469324,0.04267 -0.831551,0.415778 0.02577,0.411811 0.204791,0.593522 0.363536,0.805863 -0.268544,-0.01274 -0.536889,0.08292 -0.805433,0.207676 -0.09186,0.183019 -0.162283,0.489969 -0.211536,0.880369 -1.807428,2.510361 -5.904934,8.554534 -1.581748,11.594255 0.737578,4.848879 2.686707,8.255755 5.717266,8.238056 2.348732,-0.01371 6.088152,-4.253683 8.420472,-7.042962 0,0 1.19117,-0.192748 1.58518,-0.597333 1.23436,-1.267482 0.72934,-2.431333 0.51983,-3.638378 -0.18092,-1.042296 -1.41866,-1.992751 -1.27346,-3.040618 0.0322,-0.23265 0.21587,-0.435167 0.40251,-0.584915 0.21393,-0.02666 0.42668,-0.05679 0.63715,-0.09078 0.23459,-0.798307 -0.38397,-2.388338 -1.06577,-4.106396 1.14578,-0.521084 1.38049,-1.339768 1.11588,-2.365353 1.3664,-1.216368 3.48977,-5.340754 3.04233,-6.860551 -0.0346,-0.01558 -0.071,-0.02269 -0.1092,-0.02226 z" /><path
       style="fill:#e6e6e6;stroke:none;stroke-width:0.414304;stroke-linecap:round;stroke-linejoin:round;stroke-dashoffset:2.26772;paint-order:markers stroke fill"
       d="m 109.44027,70.097128 c 0,0 -0.76265,0.359929 -0.83162,0.85761 -0.1452,1.047868 1.0925,1.998321 1.27342,3.040617 0.20951,1.207045 0.71459,2.37086 -0.51976,3.638342 -0.39401,0.404585 -1.58528,0.597728 -1.58528,0.597728 -2.33232,2.78928 -6.07143,7.029078 -8.420172,7.042795 -3.030554,0.0177 -4.979819,-3.389372 -5.717398,-8.238251 -4.478515,-3.148936 0.07964,-9.521834 1.767195,-11.850606 z"
       id="path6"
       sodipodi:nodetypes="cssscsccc" /><path
       style="fill:#cccccc;stroke:none;stroke-width:0.405224;stroke-linecap:round;stroke-linejoin:round;stroke-dashoffset:2.26772;paint-order:markers stroke fill"
       d="m 108.76023,70.079004 c -1.92732,0.441468 0.31054,2.403356 0.58301,3.874376 0.21358,1.153095 0.73338,2.844128 -0.65906,3.135187 -0.87872,0.183677 -2.11783,-0.461144 -3.6445,-1.159434 -1.29582,-0.592702 -2.87457,-1.114989 -4.10173,-1.845159 -3.313044,-1.971272 -4.265864,-0.90699 -4.699673,-1.481529 1.082528,-5.58061 7.636203,-2.773496 12.521953,-2.523441 z"
       id="path5"
       sodipodi:nodetypes="csssscc" /><path
       style="fill:#ffffff;stroke:none;stroke-width:0.414304;stroke-linecap:round;stroke-linejoin:round;stroke-dashoffset:2.26772;paint-order:markers stroke fill"
       d="m 99.382848,57.856699 c 0.56724,0.211763 0.905392,0.619887 0.987552,1.247432 1.80128,0.351948 1.99742,2.079723 2.93666,3.170557 0.83612,-0.0908 1.72818,-0.12565 2.70278,-0.07796 1.07417,-1.059389 2.35787,-1.340277 3.22252,0.415811 0.78116,1.586508 0.91224,2.850042 -0.64969,3.560379 0.6818,1.718059 1.3001,3.307825 1.06551,4.106132 -5.38374,0.86917 -12.024231,-0.800969 -13.331939,2.494863 -1.154463,-0.325162 -1.49331,-6.997462 -0.883597,-8.212262 0.268544,-0.124753 0.537088,-0.220647 0.805633,-0.207905 -0.158747,-0.212342 -0.338067,-0.393821 -0.363835,-0.805633 0.362224,-0.373107 0.534384,-0.367632 0.831622,-0.415811 0.08704,-0.652555 0.158048,-1.316768 0.987554,-1.429349 1.14558,-1.514195 1.20104,-3.518071 1.68923,-3.84625 z"
       id="path3"
       sodipodi:nodetypes="ccccsccccccccc" /><path
       style="fill:#4d4d4d;stroke:none;stroke-width:0.414304;stroke-linecap:round;stroke-linejoin:round;stroke-dashoffset:2.26772;paint-order:markers stroke fill"
       d="m 106.25561,57.127106 c -0.76111,0.577907 -1.59055,1.032816 -2.02141,2.205169 -0.89378,0.750485 -1.78366,1.524462 -2.60945,2.682957 -0.40494,1.843752 1.32886,2.190722 2.16842,1.727382 0.99405,-1.782426 3.19913,-5.886109 2.46244,-6.615508 z"
       id="path1"
       sodipodi:nodetypes="ccccc" /><path
       style="fill:#4d4d4d;stroke:none;stroke-width:0.414304;stroke-linecap:round;stroke-linejoin:round;stroke-dashoffset:2.26772;paint-order:markers stroke fill"
       d="m 107.80302,62.040794 c -0.42189,0.695628 0.15414,2.403205 1.48132,2.053065 1.28902,-0.576035 3.95248,-5.46186 3.45643,-7.146746 -0.44176,-0.199417 -1.19229,0.959733 -1.9751,2.26097 -0.90761,0.944237 -1.91717,1.888474 -2.96265,2.832711 z"
       id="path2"
       sodipodi:nodetypes="ccccc" /><ellipse
       style="fill:#4d4d4d;stroke:none;stroke-width:0.414304;stroke-linecap:round;stroke-linejoin:round;stroke-dashoffset:2.26772;paint-order:markers stroke fill"
       id="path4"
       cx="99.330872"
       cy="65.770103"
       rx="0.6756925"
       ry="0.68868661" /></g></svg>
