<?xml version="1.0" encoding="UTF-8" standalone="no"?>
<!-- Created with Inkscape (http://www.inkscape.org/) -->

<svg
   width="25.4mm"
   height="25.4mm"
   viewBox="0 0 25.4 25.4"
   version="1.1"
   id="svg1"
   xml:space="preserve"
   inkscape:version="1.4.3 (0d15f75, 2025-12-25)"
   sodipodi:docname="WH_SukiradaeSkin.svg"
   inkscape:export-filename="WH_SukiradaeSkin.png"
   inkscape:export-xdpi="128"
   inkscape:export-ydpi="128"
   xmlns:inkscape="http://www.inkscape.org/namespaces/inkscape"
   xmlns:sodipodi="http://sodipodi.sourceforge.net/DTD/sodipodi-0.dtd"
   xmlns="http://www.w3.org/2000/svg"
   xmlns:svg="http://www.w3.org/2000/svg"><sodipodi:namedview
     id="namedview1"
     pagecolor="#505050"
     bordercolor="#ffffff"
     borderopacity="1"
     inkscape:showpageshadow="0"
     inkscape:pageopacity="0"
     inkscape:pagecheckerboard="1"
     inkscape:deskcolor="#505050"
     inkscape:document-units="mm"
     inkscape:zoom="8.4359982"
     inkscape:cx="45.459943"
     inkscape:cy="45.815562"
     inkscape:window-width="1920"
     inkscape:window-height="1051"
     inkscape:window-x="-9"
     inkscape:window-y="-9"
     inkscape:window-maximized="1"
     inkscape:current-layer="layer2" /><defs
     id="defs1" /><g
     inkscape:groupmode="layer"
     id="layer2"
     inkscape:label="ART"
     transform="translate(-92.074997,-135.73125)"><path
       id="path1-1"
       style="fill:#000000;stroke:#000000;stroke-width:1;stroke-linecap:round;stroke-linejoin:round;stroke-dasharray:none;stroke-dashoffset:2.26772;stroke-opacity:1;paint-order:markers stroke fill"
       d="m 99.028956,140.58459 c -0.132086,0.0282 -0.260345,0.088 -0.381589,0.18536 -0.807455,0.64882 0.356205,1.10655 1.303018,2.00329 l -0.412873,-0.0516 -0.07858,0.10427 c -1.07626,-0.8415 -3.00727,-1.5475 -3.400876,-0.47485 -0.397701,1.08383 1.450696,0.53537 2.786785,1.28682 l -1.011641,1.33791 -0.431195,2.12925 0.09892,0.11734 c -0.189773,0.50912 -0.5472,1.53865 -0.414091,1.75206 0.208305,0.33397 2.310831,1.38793 2.664507,1.25405 0.109346,-0.0414 0.321839,-0.34247 0.550999,-0.71383 0.0134,0.0928 0.029,0.18723 0.047,0.28306 l 0.32723,0.99186 0.48474,0.14502 0.56818,0.81803 0.15188,0.6712 0.47845,-0.0103 -0.006,-0.0502 0.34451,1.08507 0.2644,0.0823 c 0.0984,0.38169 0.34661,1.0935 0.81092,0.9668 0.83526,-0.22788 1.24044,-0.53598 1.43639,-0.79171 l 0.0873,0.39484 0.19922,-0.008 0.6195,1.7429 0.14662,-0.0152 1.3e-4,4.9e-4 c 0.0617,0.24883 0.16664,0.50612 0.34306,0.57495 0.78065,0.30466 1.89229,-0.35773 2.25332,-1.11396 0.0921,-0.19302 0.0251,-0.50406 -0.0672,-0.77068 l 0.18063,-0.29056 -0.60863,-1.27474 0.13695,-0.1836 -0.64317,-0.8866 c 0.81402,-0.47982 1.20675,-1.12068 1.5529,-1.77953 l 0.29224,-0.02 0.71784,1.52185 0.18928,-0.036 c 0.19762,0.2608 0.58134,0.70538 0.90406,0.71345 0.79766,0.0199 1.73986,-0.69117 1.88404,-1.47595 0.0469,-0.25536 -0.21536,-0.60864 -0.4196,-0.83804 l 0.13918,-0.32675 -0.70793,-1.03474 0.0609,-0.21719 -0.66861,-0.71978 c 0,0 -0.61795,-1.45222 -0.9713,-1.97008 -0.26706,-0.39138 -2.69249,-0.58573 -3.18335,-0.43112 -0.42024,0.1323 -1.46117,0.78216 -2.09252,1.1901 l -0.97305,-0.80817 -0.007,-0.47559 -2.24224,-2.09723 -0.71921,-0.0898 c -0.52549,-1.21103 -1.659409,-2.59211 -2.584475,-2.39632 z m 5.965304,12.35657 c 0.0147,-0.003 0.0296,-0.007 0.0443,-0.0105 l 0.011,0.05 c -0.0185,-0.0134 -0.0367,-0.0263 -0.0552,-0.0396 z" /><path
       style="fill:#4d4d4d;stroke:none;stroke-width:2;stroke-linecap:round;stroke-linejoin:round;stroke-dashoffset:2.26772;paint-order:markers stroke fill"
       d="m 102.91112,153.26328 c 0,0 0.23256,1.36811 0.86165,1.19645 1.7085,-0.46618 1.61739,-1.2692 1.61739,-1.2692 -1.11557,-0.80324 -2.29335,-1.78445 -2.47904,0.0728 z"
       id="path1"
       sodipodi:nodetypes="cscc" /><path
       style="fill:#4d4d4d;stroke:none;stroke-width:2;stroke-linecap:round;stroke-linejoin:round;stroke-dashoffset:2.26772;paint-order:markers stroke fill"
       d="m 106.17963,155.25371 c 0,0 0.0577,0.96057 0.42503,1.10393 0.78066,0.30465 1.89262,-0.35785 2.25365,-1.11409 0.18802,-0.39383 -0.28683,-1.27741 -0.28683,-1.27741 -0.99859,-0.48886 -2.02016,-0.87408 -2.39185,1.28757 z"
       id="path2"
       sodipodi:nodetypes="csscc" /><path
       style="fill:#4d4d4d;stroke:none;stroke-width:2;stroke-linecap:round;stroke-linejoin:round;stroke-dashoffset:2.26772;paint-order:markers stroke fill"
       d="m 110.47672,151.33859 c -0.0331,-2.21108 0.7123,-2.44434 2.27532,-1.64682 0,0 0.72047,0.65998 0.64523,1.06948 -0.14418,0.78477 -1.08666,1.49617 -1.88432,1.47623 -0.45712,-0.0114 -1.03623,-0.89889 -1.03623,-0.89889 z"
       id="path3"
       sodipodi:nodetypes="ccssc" /><path
       style="fill:#e6e6e6;stroke:none;stroke-width:2;stroke-linecap:round;stroke-linejoin:round;stroke-dashoffset:2.26772;paint-order:markers stroke fill"
       d="m 105.08612,152.90304 1.02895,2.8946 0.87053,-0.0892 0.0226,-0.44131 0.4449,0.3883 0.97714,-0.73576 -0.11179,-0.42923 0.3302,0.21192 0.32303,-0.51957 -1.36203,-2.85366 c -1.16829,-0.88198 -2.3481,-1.81361 -2.5235,1.57395 z"
       id="path4"
       sodipodi:nodetypes="ccccccccccc" /><path
       style="fill:#e6e6e6;stroke:none;stroke-width:2;stroke-linecap:round;stroke-linejoin:round;stroke-dashoffset:2.26772;paint-order:markers stroke fill"
       d="m 109.44739,149.4983 0.97234,2.06139 0.96105,-0.18159 -0.0148,-0.40866 0.37314,0.20073 0.96037,-0.80016 -0.21262,-0.28837 0.3881,0.0822 0.24188,-0.56718 -1.51717,-2.21742 c -1.56092,-1.3294 -2.23672,-0.5226 -2.15231,2.11901 z"
       id="path5"
       sodipodi:nodetypes="ccccccccccc" /><path
       style="fill:#e6e6e6;stroke:none;stroke-width:2;stroke-linecap:round;stroke-linejoin:round;stroke-dashoffset:2.26772;paint-order:markers stroke fill"
       d="m 102.69741,153.41061 0.723,0.22421 0.0608,-0.38251 0.29937,0.35745 1.1665,-0.62466 -0.57147,-1.2262 c -0.86125,-0.59381 -1.6272,-0.74732 -2.18886,0.043 z"
       id="path6"
       sodipodi:nodetypes="cccccccc" /><path
       style="fill:#f9f9f9;stroke:none;stroke-width:2;stroke-linecap:round;stroke-linejoin:round;stroke-dashoffset:2.26772;paint-order:markers stroke fill"
       d="m 111.80116,147.62478 0.66869,0.71961 -0.0832,0.29667 -0.3843,-0.24366 0.17527,0.32101 -0.49002,0.49431 -0.38342,-0.15222 0.0894,0.34338 -1.03304,0.52115 -0.34229,-0.34627 0.1118,0.42923 -0.7203,0.0501 c -0.34615,0.65885 -0.7392,1.29976 -1.55322,1.77959 l 0.64344,0.8866 -0.1699,0.2276 -0.29845,-0.26603 0.13887,0.4451 -0.65234,0.39908 -0.41225,-0.35098 0.11739,0.4507 -1.10393,0.42502 -0.33758,-0.41625 0.0363,0.40307 -0.52156,0.0212 -0.25898,-1.17008 c -0.683,0.15826 -1.43058,0.33169 -2.29217,-0.6176 l -0.22021,0.0344 -0.20703,-0.26692 0.041,0.33309 -0.47864,0.0101 -0.1518,-0.6709 -0.91664,-1.31962 c 0.37774,-3.14026 2.07973,-3.81073 4.2298,-3.64551 0,0 1.9825,-1.33044 2.60462,-1.52634 0.49087,-0.15462 2.91621,0.04 3.18327,0.43134 0.35336,0.51785 0.97139,1.96999 0.97139,1.96999 z"
       id="path7"
       sodipodi:nodetypes="cccccccccccccccccccccccccccccccccssc" /><path
       style="fill:#e6e6e6;stroke:none;stroke-width:2;stroke-linecap:round;stroke-linejoin:round;stroke-dashoffset:2.26772;paint-order:markers stroke fill"
       d="m 100.34856,149.75977 0.32707,0.99192 0.69595,0.20834 0.0328,-0.48983 0.14446,0.46657 0.95258,0.0498 0.14574,-0.4963 0.26202,0.39009 1.3923,-0.63765 -0.17153,-0.48242 0.48693,0.2857 0.82801,-1.13236 -0.25353,-0.62149 0.45808,0.0869 0.15802,-0.88909 -0.41875,-0.46387 0.37693,0.0393 -0.11427,-0.57083 -2.03262,-1.68882 c -1.5738,0.0758 -3.909457,1.54911 -3.2702,4.95395 z"
       id="path8"
       sodipodi:nodetypes="cccccccccccccccccccc" /><path
       style="fill:#e6e6e6;fill-opacity:1;stroke:none;stroke-width:2;stroke-linecap:round;stroke-linejoin:round;stroke-dashoffset:2.26772;paint-order:markers stroke fill"
       d="m 97.60941,146.89811 c 0,0 -0.701679,1.75239 -0.523271,2.03842 0.208305,0.33397 2.310524,1.38794 2.664198,1.25406 0.308543,-0.11684 1.440523,-2.30025 1.440523,-2.30025 -0.97819,-1.22719 -1.741282,-3.34859 -3.58145,-0.99223 z"
       id="path10"
       sodipodi:nodetypes="csscc" /><path
       style="fill:#f9f9f9;stroke:none;stroke-width:2;stroke-linecap:round;stroke-linejoin:round;stroke-dashoffset:2.26772;paint-order:markers stroke fill"
       d="m 97.401283,147.0669 0.58233,0.69305 0.27279,-0.40309 -0.0098,0.50185 c 0,0 0.647692,0.38372 1.023004,0.48621 0.157139,0.0429 0.819373,0.0369 0.819373,0.0369 l 0.23709,-0.45538 0.0581,0.43944 0.75699,-0.0501 -0.78978,1.19116 1.32503,-0.36805 -0.11452,-0.70353 0.54841,0.52178 1.23936,-0.87283 -0.34672,-0.80346 0.71919,0.38562 0.70485,-1.07736 -0.60341,-0.64496 0.76592,0.21303 -0.0155,-1.02726 -2.24215,-2.09734 -2.795175,-0.34907 -1.704544,2.25442 z"
       id="path9"
       sodipodi:nodetypes="ccccsccccccccccccccccccc" /><path
       style="fill:#4d4d4d;fill-opacity:1;stroke:none;stroke-width:2;stroke-linecap:round;stroke-linejoin:round;stroke-dashoffset:2.26772;paint-order:markers stroke fill"
       d="m 97.768414,148.30048 c 0.231345,0.11415 -0.03456,0.86548 -0.288583,0.73977 -0.254021,-0.12571 0.05724,-0.85391 0.288583,-0.73977 z"
       id="path11"
       sodipodi:nodetypes="zzz" /><path
       style="fill:#4d4d4d;fill-opacity:1;stroke:none;stroke-width:2;stroke-linecap:round;stroke-linejoin:round;stroke-dashoffset:2.26772;paint-order:markers stroke fill"
       d="m 98.596356,148.68298 c 0.231345,0.11414 -0.03456,0.86548 -0.288583,0.73977 -0.254021,-0.12571 0.05724,-0.85392 0.288583,-0.73977 z"
       id="path11-5"
       sodipodi:nodetypes="zzz" /><path
       style="fill:#e6e6e6;fill-opacity:1;stroke:none;stroke-width:1.85602;stroke-linecap:round;stroke-linejoin:round;stroke-dashoffset:2.26772;paint-order:markers stroke fill"
       d="m 99.210103,143.85302 c -1.328922,-1.1243 -3.58874,-0.35251 -3.153077,-1.53978 0.435663,-1.18727 2.754735,-0.19563 3.713587,0.74714 -0.01567,0.34987 -0.176305,0.6272 -0.56051,0.79264 z"
       id="path12"
       sodipodi:nodetypes="czcc" /><path
       style="fill:#e6e6e6;fill-opacity:1;stroke:none;stroke-width:2.08742;stroke-linecap:round;stroke-linejoin:round;stroke-dashoffset:2.26772;paint-order:markers stroke fill"
       d="m 100.81806,143.9907 c -0.63813,-1.83073 -3.287361,-2.36188 -2.17138,-3.25862 1.115998,-0.89674 2.79512,1.36443 3.17889,2.81193 -0.21918,0.32779 -0.53716,0.50406 -1.00751,0.44669 z"
       id="path12-1"
       sodipodi:nodetypes="czcc" /><circle
       style="fill:#4d4d4d;fill-opacity:1;stroke:none;stroke-width:2;stroke-linecap:round;stroke-linejoin:round;stroke-dashoffset:2.26772;paint-order:markers stroke fill"
       id="path13"
       cx="60.97723"
       cy="166.86473"
       r="0.40772688"
       transform="rotate(-14.598845)" /></g></svg>
